<svg version="1.1" xmlns="http://www.w3.org/2000/svg" style="display: block;" viewBox="0 0 2000 2000" width="500" height="500" preserveAspectRatio="none">
<defs>
	<linearGradient id="Gradient1" gradientUnits="userSpaceOnUse" x1="1054" y1="1206.78" x2="1523.78" y2="1098.2">
		<stop class="stop0" offset="0" stop-opacity="1" stop-color="rgb(29,50,168)"/>
		<stop class="stop1" offset="1" stop-opacity="1" stop-color="rgb(14,98,239)"/>
	</linearGradient>
	<linearGradient id="Gradient2" gradientUnits="userSpaceOnUse" x1="1182.47" y1="722.914" x2="1072.45" y2="301.361">
		<stop class="stop0" offset="0" stop-opacity="1" stop-color="rgb(130,204,252)"/>
		<stop class="stop1" offset="1" stop-opacity="1" stop-color="rgb(167,227,252)"/>
	</linearGradient>
</defs>
<path transform="translate(0,0)" fill="rgb(17,122,250)" d="M 807.413 639.648 C 700.874 641.936 593.023 638.48 486.367 639.765 C 482.182 639.816 475.335 639.174 471.471 637.667 C 466.215 629.379 468.109 569.538 468.135 556.872 L 468.247 441.581 L 468.122 360.78 C 468.09 341.188 467.175 321.276 469.99 301.974 C 474.148 298.799 481.594 298.64 486.941 298.587 C 518.849 298.268 550.987 298.38 582.885 298.38 L 775.698 298.543 L 944.579 298.406 C 986.552 298.351 1026.36 297.653 1068.31 300.023 C 1077.52 301.498 1086.6 301.747 1095.68 303.169 C 1110.37 305.469 1126.63 308.702 1141 312.421 C 1249.38 340.465 1339.53 403.055 1404.92 493.8 C 1410.8 501.962 1419.46 514.17 1424.96 521.964 C 1432.18 532.214 1462.04 568.911 1465.62 577.033 C 1469.14 580.713 1472.07 584.711 1475.04 588.845 C 1487.33 605.952 1500.76 622.516 1512.41 640.046 C 1576 719.041 1629.39 795.579 1639.69 898.936 C 1642.69 929.019 1645.5 955.82 1641.04 986.097 C 1637.37 1031.74 1617.67 1104.18 1592.23 1142.84 C 1588.62 1143.67 1580.5 1159.06 1578.04 1162.99 C 1572.12 1172.28 1565.86 1181.36 1559.27 1190.2 C 1555.62 1195.16 1551.1 1202.33 1544.95 1203.26 C 1540.01 1200.39 1543.37 1193.38 1540.57 1186.01 L 1539.03 1185.37 L 1535.65 1188.35 C 1523.59 1189.55 1492.19 1155.19 1480.15 1148.79 C 1476.26 1146.71 1455.28 1135.22 1453.78 1133.36 C 1411.07 1080.73 1368.6 1027.82 1325.86 975.205 C 1324.56 973.605 1323.77 972.608 1322.94 970.715 C 1318.36 966.407 1306.72 951.77 1302.32 946.471 C 1287.57 928.685 1272.92 910.817 1258.37 892.869 C 1226.18 852.919 1192.51 812.98 1159.82 773.281 L 1085.37 682.781 C 1077.02 672.668 1057.71 651.433 1051.86 641.48 C 1045.49 637.936 893.196 640.001 872.552 639.775 C 853.162 640.489 827.016 640.05 807.413 639.648 z"/>
<path transform="translate(0,0)" fill="rgb(1,178,253)" d="M 807.413 639.648 C 700.874 641.936 593.023 638.48 486.367 639.765 C 482.182 639.816 475.335 639.174 471.471 637.667 C 466.215 629.379 468.109 569.538 468.135 556.872 L 468.247 441.581 L 468.122 360.78 C 468.09 341.188 467.175 321.276 469.99 301.974 C 474.148 298.799 481.594 298.64 486.941 298.587 C 518.849 298.268 550.987 298.38 582.885 298.38 L 775.698 298.543 L 944.579 298.406 C 986.552 298.351 1026.36 297.653 1068.31 300.023 C 1067.89 320.593 1067.74 328.299 1052.86 344.496 C 1043.48 354.699 1033.65 366.522 1024.86 377.3 C 1012.19 390.54 1001.69 405.487 989.888 419.384 C 929.477 490.522 868.412 561.154 809.876 633.858 C 808.122 636.036 807.862 636.958 807.413 639.648 z"/>
<path transform="translate(0,0)" fill="url(#Gradient2)" d="M 1068.31 300.023 C 1077.52 301.498 1086.6 301.747 1095.68 303.169 C 1110.37 305.469 1126.63 308.702 1141 312.421 C 1249.38 340.465 1339.53 403.055 1404.92 493.8 C 1410.8 501.962 1419.46 514.17 1424.96 521.964 C 1432.18 532.214 1462.04 568.911 1465.62 577.033 C 1469.14 580.713 1472.07 584.711 1475.04 588.845 C 1487.33 605.952 1500.76 622.516 1512.41 640.046 C 1506.32 641.607 1441.56 641.648 1431.48 641.227 C 1406.75 640.195 1368.39 642.58 1344.54 640.878 C 1246.98 640.461 1149.42 640.661 1051.86 641.48 C 1045.49 637.936 893.196 640.001 872.552 639.775 C 853.162 640.489 827.016 640.05 807.413 639.648 C 807.862 636.958 808.122 636.036 809.876 633.858 C 868.412 561.154 929.477 490.522 989.888 419.384 C 1001.69 405.487 1012.19 390.54 1024.86 377.3 C 1033.65 366.522 1043.48 354.699 1052.86 344.496 C 1067.74 328.299 1067.89 320.593 1068.31 300.023 z"/>
<path transform="translate(0,0)" fill="rgb(84,200,250)" d="M 1024.86 377.3 C 1021.28 387.757 979.439 433.996 970.56 445.603 C 963.278 455.124 956.56 467.108 948.737 476.372 C 939.405 487.424 927.5 498.473 918.613 509.771 L 874.126 567.052 C 869.171 573.322 864.842 580.647 859.785 586.632 C 851.243 596.744 840.209 604.363 833.398 615.934 C 832.499 617.462 824.869 621.117 823.131 622.128 C 818.371 629.944 824.316 627.985 817.175 637.097 C 821.482 639.531 861.017 636.929 872.552 639.775 C 853.162 640.489 827.016 640.05 807.413 639.648 C 807.862 636.958 808.122 636.036 809.876 633.858 C 868.412 561.154 929.477 490.522 989.888 419.384 C 1001.69 405.487 1012.19 390.54 1024.86 377.3 z"/>
<path transform="translate(0,0)" fill="rgb(1,178,253)" d="M 1465.62 577.033 C 1469.14 580.713 1472.07 584.711 1475.04 588.845 C 1487.33 605.952 1500.76 622.516 1512.41 640.046 C 1506.32 641.607 1441.56 641.648 1431.48 641.227 C 1406.75 640.195 1368.39 642.58 1344.54 640.878 C 1367.47 636.989 1470.29 641.382 1500.73 638.972 C 1471.93 641.253 1528.73 638.116 1503.88 639.416 C 1507.99 628.692 1468.93 590.703 1465.62 577.033 z"/>
<path transform="translate(0,0)" fill="rgb(17,122,250)" d="M 768.464 1619.09 C 735.43 1619.08 485.919 1621.58 473.279 1616.98 C 471.329 1616.27 470.725 1615.85 469.983 1613.89 C 466.086 1603.57 468.418 1472.52 468.41 1448.47 L 468.338 1028.38 L 468.253 922.709 C 468.169 903.003 467.941 883.068 468.179 863.364 C 468.219 860.085 469.138 854.937 470.631 851.931 C 471.68 849.678 473.786 849.039 476.104 848.664 C 488.523 846.653 502.494 847.529 515.048 847.543 L 581.323 847.581 L 687.773 847.553 C 699.589 847.513 749.821 845.409 757.641 850.174 C 763.36 865.415 761.077 928.439 761.052 947.216 L 760.991 1089.31 L 760.937 1210.53 C 760.921 1232.05 761.631 1257.89 760.391 1278.85 C 770.844 1277.34 796.909 1277.99 808.467 1278 L 901.484 1278.08 L 1004.5 1278.01 C 1017.65 1278 1047.04 1277.32 1059.11 1278.8 C 1052 1289.79 1026.16 1318.31 1016.82 1329.16 L 943.872 1415.14 L 828.932 1548.48 C 817.107 1562.25 805.357 1576.08 793.683 1589.97 C 786.181 1598.96 776.75 1610.98 768.464 1619.09 z"/>
<path transform="translate(0,0)" fill="rgb(22,27,86)" d="M 1322.94 970.715 C 1323.77 972.608 1324.56 973.605 1325.86 975.205 C 1368.6 1027.82 1411.07 1080.73 1453.78 1133.36 C 1455.28 1135.22 1476.26 1146.71 1480.15 1148.79 C 1492.19 1155.19 1523.59 1189.55 1535.65 1188.35 L 1539.03 1185.37 L 1540.57 1186.01 C 1543.37 1193.38 1540.01 1200.39 1544.95 1203.26 C 1551.1 1202.33 1555.62 1195.16 1559.27 1190.2 C 1565.86 1181.36 1572.12 1172.28 1578.04 1162.99 C 1580.5 1159.06 1588.62 1143.67 1592.23 1142.84 C 1575.89 1175.57 1546.21 1209.65 1523.43 1238.42 C 1516.05 1247.75 1498.29 1271.7 1490.98 1279.61 L 1390.2 1404.98 C 1371.55 1428.32 1352.65 1452.85 1333.57 1475.57 C 1272.08 1548.8 1179.62 1605.44 1083.6 1616.3 C 1041.49 1621.06 992.335 1619.14 949.426 1619.14 L 768.464 1619.09 C 776.75 1610.98 786.181 1598.96 793.683 1589.97 C 805.357 1576.08 817.107 1562.25 828.932 1548.48 L 943.872 1415.14 L 1016.82 1329.16 C 1026.16 1318.31 1052 1289.79 1059.11 1278.8 L 1063.02 1276.88 C 1076.38 1259.2 1092.45 1241.14 1106.97 1224.22 C 1155.76 1167.37 1203.4 1109.09 1252.42 1052.49 C 1266.72 1035.68 1281.16 1018.99 1295.75 1002.43 C 1301 996.501 1319.62 976.373 1322.94 970.715 z"/>
<path transform="translate(0,0)" fill="url(#Gradient1)" d="M 1322.94 970.715 C 1323.77 972.608 1324.56 973.605 1325.86 975.205 C 1368.6 1027.82 1411.07 1080.73 1453.78 1133.36 C 1455.28 1135.22 1476.26 1146.71 1480.15 1148.79 C 1492.19 1155.19 1523.59 1189.55 1535.65 1188.35 L 1539.03 1185.37 L 1540.57 1186.01 C 1543.37 1193.38 1540.01 1200.39 1544.95 1203.26 C 1551.1 1202.33 1555.62 1195.16 1559.27 1190.2 C 1565.86 1181.36 1572.12 1172.28 1578.04 1162.99 C 1580.5 1159.06 1588.62 1143.67 1592.23 1142.84 C 1575.89 1175.57 1546.21 1209.65 1523.43 1238.42 C 1516.05 1247.75 1498.29 1271.7 1490.98 1279.61 C 1479.5 1277.24 1462.86 1277.87 1450.72 1277.89 L 1398.12 1277.92 L 1115.77 1277.87 C 1098.99 1277.89 1082.26 1278.21 1065.51 1279.05 C 1064.68 1278.33 1063.85 1277.61 1063.02 1276.88 C 1076.38 1259.2 1092.45 1241.14 1106.97 1224.22 C 1155.76 1167.37 1203.4 1109.09 1252.42 1052.49 C 1266.72 1035.68 1281.16 1018.99 1295.75 1002.43 C 1301 996.501 1319.62 976.373 1322.94 970.715 z"/>
</svg>
